Coordinates
version=1
nRows=10
nColumns=23
inDegrees=yes

Units are S.I. units (second, meters, Newtons, ...)
If the header above contains a line with 'inDegrees', this indicates whether rotational values are in degrees (yes) or radians (no).

endheader
time	pelvis_tilt	pelvis_list	pelvis_rotation	pelvis_tx	pelvis_ty	pelvis_tz	hip_flexion_r	hip_adduction_r	hip_rotation_r	knee_angle_r	knee_angle_r_beta	ankle_angle_r	subtalar_angle_r	mtp_angle_r	hip_flexion_l	hip_adduction_l	hip_rotation_l	knee_angle_l	knee_angle_l_beta	ankle_angle_l	subtalar_angle_l	mtp_angle_l
      0.00000000	     -6.55060130	      4.08247012	      7.62170492	      2.20621335	      0.91294026	      0.97232349	     28.12139658	     -8.32086235	     -1.86556350	     90.32249306	      1.57642489	      0.90876835	    -15.89273508	      0.00000000	     16.65968192	      6.31635797	     -5.28174762	     42.34592001	      0.73907573	     28.36102660	     -0.09964873	      0.00000000
      0.00666667	     -6.93649165	      3.72811718	      7.88055927	      2.20570581	      0.91494023	      0.97165691	     29.92909933	     -8.33521970	     -2.23187473	     89.29892752	      1.55856030	      1.25529663	    -15.95193966	      0.00000000	     15.45405088	      5.92170338	     -5.07433622	     41.30942842	      0.72098554	     28.33595368	      0.13448670	      0.00000000
      0.01333333	     -7.03429535	      3.53034187	      8.10177182	      2.20540442	      0.91739336	      0.97095512	     31.28597172	     -8.43765252	     -2.51231042	     88.12857956	      1.53813388	      1.51040298	    -16.33859876	      0.00000000	     13.78233935	      5.85443820	     -4.42940855	     39.96751296	      0.69756469	     28.22252658	      0.84407630	      0.00000000
      0.02000000	     -7.33188521	      3.16318344	      8.24579347	      2.20513360	      0.91961642	      0.97040079	     32.80452239	     -8.32240606	     -2.80318345	     86.79111850	      1.51479078	      1.86896119	    -16.47194357	      0.00000000	     12.41238388	      5.50979077	     -4.03261386	     38.70722417	      0.67556851	     28.07075784	      1.18859230	      0.00000000
      0.02666667	     -7.51493832	      2.82301060	      8.33649403	      2.20509058	      0.92216732	      0.96993993	     34.06238605	     -8.16983347	     -3.07666609	     85.22519569	      1.48746027	      2.14380723	    -16.69810891	      0.00000000	     10.86567711	      5.16526753	     -3.66655520	     37.31183347	      0.65121434	     27.82443873	      1.57884756	      0.00000000
      0.03333333	     -7.49386166	      2.41800682	      8.31612141	      2.20535458	      0.92520679	      0.96964297	     34.94781243	     -7.85277019	     -3.37627753	     83.36004870	      1.45490731	      2.25311983	    -17.06975356	      0.00000000	      9.08071929	      4.62735119	     -3.58230490	     35.83265961	      0.62539789	     27.36517760	      2.13976509	      0.00000000
      0.04000000	     -7.68603327	      2.01921739	      8.16314317	      2.20570423	      0.92817224	      0.96955784	     35.99315912	     -7.43863130	     -3.53362232	     81.29913880	      1.41893765	      2.38109054	    -17.29042497	      0.00000000	      7.53889624	      4.11799309	     -3.61930507	     34.33025437	      0.59917597	     26.72209191	      2.67885031	      0.00000000
      0.04666667	     -8.38278728	      1.65607610	      8.10299827	      2.20591368	      0.93055903	      0.96938268	     37.52224203	     -7.25139196	     -3.82519849	     79.13449694	      1.38115752	      2.69770612	    -17.10171655	      0.00000000	      6.70208702	      3.69961505	     -3.69436174	     33.10286569	      0.57775400	     26.39657597	      2.92450554	      0.00000000
      0.05333333	     -8.03939724	      1.15561284	      7.50236989	      2.20706713	      0.93478129	      0.96997774	     37.64701404	     -6.21342548	     -3.66569340	     76.34946130	      1.33254948	      2.41081240	    -17.52150470	      0.00000000	      4.39790470	      2.97905721	     -4.15006356	     31.14048827	      0.54350405	     24.59050769	      3.52324847	      0.00000000
      0.06000000	     -8.21474028	      0.70718429	      7.01556127	      2.20804168	      0.93832750	      0.97044942	     38.24762459	     -5.42829177	     -3.63148392	     73.45583782	      1.28204622	      2.28489530	    -17.51270250	      0.00000000	      2.82379917	      2.40406520	     -4.58414595	     29.48427477	      0.51459767	     23.09510000	      3.80613733	      0.00000000
